<?xml version="1.0" encoding="UTF-8" standalone="no"?>
<!-- Created with Inkscape (http://www.inkscape.org/) -->

<svg
   xmlns:dc="http://purl.org/dc/elements/1.1/"
   xmlns:cc="http://creativecommons.org/ns#"
   xmlns:rdf="http://www.w3.org/1999/02/22-rdf-syntax-ns#"
   xmlns:svg="http://www.w3.org/2000/svg"
   xmlns="http://www.w3.org/2000/svg"
   xmlns:sodipodi="http://sodipodi.sourceforge.net/DTD/sodipodi-0.dtd"
   xmlns:inkscape="http://www.inkscape.org/namespaces/inkscape"
   width="40"
   height="40"
   viewBox="0 0 10.583333 10.583333"
   version="1.1"
   id="svg8"
   sodipodi:docname="shotedit-tool-modify.svg"
   inkscape:export-filename="/home/raster/C/shotedit/shotedit-tool-modify.png"
   inkscape:export-xdpi="384"
   inkscape:export-ydpi="384"
   inkscape:version="0.92.4 (5da689c313, 2019-01-14)">
  <defs
     id="defs2">
    <filter
       inkscape:collect="always"
       style="color-interpolation-filters:sRGB"
       id="filter4677"
       x="-0.096"
       width="1.192"
       y="-0.096"
       height="1.192">
      <feGaussianBlur
         inkscape:collect="always"
         stdDeviation="1.26625"
         id="feGaussianBlur4679" />
    </filter>
  </defs>
  <sodipodi:namedview
     id="base"
     pagecolor="#404040"
     bordercolor="#202020"
     borderopacity="1"
     inkscape:pageopacity="0"
     inkscape:pageshadow="2"
     inkscape:zoom="13.925"
     inkscape:cx="20"
     inkscape:cy="20"
     inkscape:document-units="mm"
     inkscape:current-layer="layer1"
     showgrid="true"
     units="px"
     width="40px"
     inkscape:showpageshadow="false"
     inkscape:window-width="1206"
     inkscape:window-height="1372"
     inkscape:window-x="0"
     inkscape:window-y="0"
     inkscape:window-maximized="0">
    <inkscape:grid
       type="xygrid"
       id="grid4518"
       empspacing="4" />
  </sodipodi:namedview>
  <metadata
     id="metadata5">
    <rdf:RDF>
      <cc:Work
         rdf:about="">
        <dc:format>image/svg+xml</dc:format>
        <dc:type
           rdf:resource="http://purl.org/dc/dcmitype/StillImage" />
        <dc:title></dc:title>
      </cc:Work>
    </rdf:RDF>
  </metadata>
  <g
     inkscape:label="Layer 1"
     inkscape:groupmode="layer"
     id="layer1"
     transform="translate(0,-286.41667)">
    <path
       id="path4667"
       transform="matrix(0.26458333,0,0,0.26458333,0,286.41667)"
       d="M 20 4.171875 L 15.050781 9.1210938 L 16.464844 10.535156 L 19 8 L 19 14 L 21 14 L 21 8 L 23.535156 10.535156 L 24.949219 9.1210938 L 20 4.171875 z M 9.1210938 15.050781 L 4.171875 20 L 9.1210938 24.949219 L 10.535156 23.535156 L 8 21 L 14 21 L 14 19 L 8 19 L 10.535156 16.464844 L 9.1210938 15.050781 z M 30.878906 15.050781 L 29.464844 16.464844 L 32 19 L 26 19 L 26 21 L 32 21 L 29.464844 23.535156 L 30.878906 24.949219 L 35.828125 20 L 30.878906 15.050781 z M 19 26 L 19 32 L 16.464844 29.464844 L 15.050781 30.878906 L 20 35.828125 L 24.949219 30.878906 L 23.535156 29.464844 L 21 32 L 21 26 L 19 26 z "
       style="opacity:0.5;fill:#0c0c0c;fill-opacity:1;stroke:none;stroke-width:15.99999905;stroke-linecap:round;stroke-linejoin:round;stroke-miterlimit:4;stroke-dasharray:none;stroke-opacity:1;filter:url(#filter4677)" />
    <path
       style="opacity:1;fill:#ffffff;fill-opacity:1;stroke:none;stroke-width:15.99999905;stroke-linecap:round;stroke-linejoin:round;stroke-miterlimit:4;stroke-dasharray:none;stroke-opacity:1"
       d="M 20 4.171875 L 15.050781 9.1210938 L 16.464844 10.535156 L 19 8 L 19 14 L 21 14 L 21 8 L 23.535156 10.535156 L 24.949219 9.1210938 L 20 4.171875 z M 9.1210938 15.050781 L 4.171875 20 L 9.1210938 24.949219 L 10.535156 23.535156 L 8 21 L 14 21 L 14 19 L 8 19 L 10.535156 16.464844 L 9.1210938 15.050781 z M 30.878906 15.050781 L 29.464844 16.464844 L 32 19 L 26 19 L 26 21 L 32 21 L 29.464844 23.535156 L 30.878906 24.949219 L 35.828125 20 L 30.878906 15.050781 z M 19 26 L 19 32 L 16.464844 29.464844 L 15.050781 30.878906 L 20 35.828125 L 24.949219 30.878906 L 23.535156 29.464844 L 21 32 L 21 26 L 19 26 z "
       transform="matrix(0.26458333,0,0,0.26458333,0,286.41667)"
       id="rect4651" />
  </g>
</svg>
