<?xml version="1.0" encoding="UTF-8" standalone="no"?>
<!-- Created with Inkscape (http://www.inkscape.org/) -->

<svg
   xmlns:dc="http://purl.org/dc/elements/1.1/"
   xmlns:cc="http://creativecommons.org/ns#"
   xmlns:rdf="http://www.w3.org/1999/02/22-rdf-syntax-ns#"
   xmlns:svg="http://www.w3.org/2000/svg"
   xmlns="http://www.w3.org/2000/svg"
   xmlns:sodipodi="http://sodipodi.sourceforge.net/DTD/sodipodi-0.dtd"
   xmlns:inkscape="http://www.inkscape.org/namespaces/inkscape"
   width="800"
   height="800"
   viewBox="0 0 211.66667 211.66667"
   version="1.1"
   id="svg8"
   inkscape:version="0.92.4 5da689c313, 2019-01-14"
   sodipodi:docname="shotedit-cloud2.svg"
   inkscape:export-filename="/home/raster/C/shotedit/shotedit-cloud2.png"
   inkscape:export-xdpi="96"
   inkscape:export-ydpi="96">
  <defs
     id="defs2" />
  <sodipodi:namedview
     id="base"
     pagecolor="#404040"
     bordercolor="#666666"
     borderopacity="1.0"
     inkscape:pageopacity="0"
     inkscape:pageshadow="2"
     inkscape:zoom="1.50375"
     inkscape:cx="216.45885"
     inkscape:cy="401.33001"
     inkscape:document-units="mm"
     inkscape:current-layer="layer1"
     showgrid="false"
     units="px"
     width="800px"
     inkscape:window-width="2560"
     inkscape:window-height="1377"
     inkscape:window-x="0"
     inkscape:window-y="0"
     inkscape:window-maximized="1" />
  <metadata
     id="metadata5">
    <rdf:RDF>
      <cc:Work
         rdf:about="">
        <dc:format>image/svg+xml</dc:format>
        <dc:type
           rdf:resource="http://purl.org/dc/dcmitype/StillImage" />
        <dc:title></dc:title>
      </cc:Work>
    </rdf:RDF>
  </metadata>
  <g
     inkscape:label="Layer 1"
     inkscape:groupmode="layer"
     id="layer1"
     transform="translate(0,-85.333333)">
    <path
       style="opacity:1;fill:#ffffff;fill-opacity:1;stroke:#000000;stroke-width:16.0000002;stroke-linecap:square;stroke-linejoin:miter;stroke-miterlimit:4;stroke-dasharray:none;stroke-opacity:1"
       d="M 311.83203 76.476562 A 134.99585 125.35328 0 0 0 177.55664 202.27344 A 134.99585 125.35328 0 0 0 179.3418 221.69727 A 120.69826 115.71073 0 0 0 65.835938 337.56836 A 120.69826 115.71073 0 0 0 134.93555 441.60352 A 110.05819 89.110554 0 0 0 124.35742 479.78516 A 110.05819 89.110554 0 0 0 138.875 523.48242 A 159.601 153.94846 0 0 0 113.7168 606.69727 A 159.601 153.94846 0 0 0 273.59961 760.09961 A 159.601 153.94846 0 0 0 396.08789 704.43945 A 171.90358 196.50873 0 0 0 502.7168 746.79883 A 171.90358 196.50873 0 0 0 673.5625 567.4668 A 134.66335 137.65585 0 0 0 774.73047 434.24805 L 774.72656 433.26953 A 134.66335 137.65585 0 0 0 639.34961 296.59375 A 134.66335 137.65585 0 0 0 630.09766 296.9707 A 120.03325 122.36078 0 0 0 635.74414 260.01758 L 635.74023 259.14648 A 120.03325 122.36078 0 0 0 515.07031 137.6582 A 120.03325 122.36078 0 0 0 441.1582 164.15039 A 134.99585 125.35328 0 0 0 311.83203 76.476562 z "
       transform="matrix(0.26458333,0,0,0.26458333,0,85.333333)"
       id="path816" />
  </g>
</svg>
