<?xml version="1.0" encoding="UTF-8" standalone="no"?>
<!-- Created with Inkscape (http://www.inkscape.org/) -->

<svg
   xmlns:dc="http://purl.org/dc/elements/1.1/"
   xmlns:cc="http://creativecommons.org/ns#"
   xmlns:rdf="http://www.w3.org/1999/02/22-rdf-syntax-ns#"
   xmlns:svg="http://www.w3.org/2000/svg"
   xmlns="http://www.w3.org/2000/svg"
   xmlns:sodipodi="http://sodipodi.sourceforge.net/DTD/sodipodi-0.dtd"
   xmlns:inkscape="http://www.inkscape.org/namespaces/inkscape"
   width="72"
   height="72"
   viewBox="0 0 19.05 19.05"
   version="1.1"
   id="svg8"
   inkscape:version="0.92.4 (5da689c313, 2019-01-14)"
   sodipodi:docname="shotedit-edit-circle.svg"
   inkscape:export-filename="/home/raster/C/shotedit/shotedit-edit-diag2.png"
   inkscape:export-xdpi="96"
   inkscape:export-ydpi="96">
  <defs
     id="defs2">
    <filter
       inkscape:collect="always"
       style="color-interpolation-filters:sRGB"
       id="filter844"
       x="-0.072"
       width="1.144"
       y="-0.072"
       height="1.144">
      <feGaussianBlur
         inkscape:collect="always"
         stdDeviation="1.68"
         id="feGaussianBlur846" />
    </filter>
  </defs>
  <sodipodi:namedview
     id="base"
     pagecolor="#404040"
     bordercolor="#666666"
     borderopacity="1.0"
     inkscape:pageopacity="0"
     inkscape:pageshadow="2"
     inkscape:zoom="16.708333"
     inkscape:cx="36.000001"
     inkscape:cy="36.000001"
     inkscape:document-units="mm"
     inkscape:current-layer="layer1"
     showgrid="true"
     units="px"
     width="800px"
     inkscape:window-width="2560"
     inkscape:window-height="1377"
     inkscape:window-x="0"
     inkscape:window-y="0"
     inkscape:window-maximized="1">
    <inkscape:grid
       type="xygrid"
       id="grid816"
       empspacing="8" />
  </sodipodi:namedview>
  <metadata
     id="metadata5">
    <rdf:RDF>
      <cc:Work
         rdf:about="">
        <dc:format>image/svg+xml</dc:format>
        <dc:type
           rdf:resource="http://purl.org/dc/dcmitype/StillImage" />
        <dc:title></dc:title>
      </cc:Work>
    </rdf:RDF>
  </metadata>
  <g
     inkscape:label="Layer 1"
     inkscape:groupmode="layer"
     id="layer1"
     transform="translate(0,-277.95)">
    <path
       id="path822"
       transform="matrix(0.26458333,0,0,0.26458333,0,277.95)"
       d="M 36 8 A 28 28 0 0 0 8 36 A 28 28 0 0 0 36 64 A 28 28 0 0 0 64 36 A 28 28 0 0 0 36 8 z M 36 16 A 19.999999 19.999999 0 0 1 56 36 A 19.999999 19.999999 0 0 1 36 56 A 19.999999 19.999999 0 0 1 16 36 A 19.999999 19.999999 0 0 1 36 16 z "
       style="opacity:1;fill:#000000;fill-opacity:1;stroke:none;stroke-width:15.99999905;stroke-linecap:round;stroke-linejoin:round;stroke-miterlimit:4;stroke-dasharray:none;stroke-opacity:1;filter:url(#filter844)" />
    <path
       style="opacity:1;fill:#ffffff;fill-opacity:1;stroke:none;stroke-width:15.99999905;stroke-linecap:round;stroke-linejoin:round;stroke-miterlimit:4;stroke-dasharray:none;stroke-opacity:1"
       d="M 36 8 A 28 28 0 0 0 8 36 A 28 28 0 0 0 36 64 A 28 28 0 0 0 64 36 A 28 28 0 0 0 36 8 z M 36 16 A 19.999999 19.999999 0 0 1 56 36 A 19.999999 19.999999 0 0 1 36 56 A 19.999999 19.999999 0 0 1 16 36 A 19.999999 19.999999 0 0 1 36 16 z "
       transform="matrix(0.26458333,0,0,0.26458333,0,277.95)"
       id="path817" />
  </g>
</svg>
