<?xml version="1.0" encoding="UTF-8" standalone="no"?>
<!-- Created with Inkscape (http://www.inkscape.org/) -->

<svg
   xmlns:dc="http://purl.org/dc/elements/1.1/"
   xmlns:cc="http://creativecommons.org/ns#"
   xmlns:rdf="http://www.w3.org/1999/02/22-rdf-syntax-ns#"
   xmlns:svg="http://www.w3.org/2000/svg"
   xmlns="http://www.w3.org/2000/svg"
   xmlns:sodipodi="http://sodipodi.sourceforge.net/DTD/sodipodi-0.dtd"
   xmlns:inkscape="http://www.inkscape.org/namespaces/inkscape"
   width="800"
   height="800"
   viewBox="0 0 211.66667 211.66667"
   version="1.1"
   id="svg8"
   inkscape:version="0.92.4 (5da689c313, 2019-01-14)"
   sodipodi:docname="shotedit-cloud.svg">
  <defs
     id="defs2" />
  <sodipodi:namedview
     id="base"
     pagecolor="#404040"
     bordercolor="#666666"
     borderopacity="1.0"
     inkscape:pageopacity="0"
     inkscape:pageshadow="2"
     inkscape:zoom="1.50375"
     inkscape:cx="400"
     inkscape:cy="400.3325"
     inkscape:document-units="mm"
     inkscape:current-layer="layer1"
     showgrid="false"
     units="px"
     width="800px"
     inkscape:window-width="2560"
     inkscape:window-height="1377"
     inkscape:window-x="0"
     inkscape:window-y="0"
     inkscape:window-maximized="1" />
  <metadata
     id="metadata5">
    <rdf:RDF>
      <cc:Work
         rdf:about="">
        <dc:format>image/svg+xml</dc:format>
        <dc:type
           rdf:resource="http://purl.org/dc/dcmitype/StillImage" />
        <dc:title></dc:title>
      </cc:Work>
    </rdf:RDF>
  </metadata>
  <g
     inkscape:label="Layer 1"
     inkscape:groupmode="layer"
     id="layer1"
     transform="translate(0,-85.333333)">
    <path
       style="opacity:1;fill:#ffffff;fill-opacity:1;stroke:#000000;stroke-width:16.0000002;stroke-linecap:square;stroke-linejoin:miter;stroke-miterlimit:4;stroke-dasharray:none;stroke-opacity:1"
       d="M 455.52734 52.535156 A 133.66582 129.67581 0 0 0 327.4375 145.39062 A 213.79885 200.16624 0 0 0 277.63867 139.65039 A 213.79885 200.16624 0 0 0 150.86914 178.91797 A 74.480471 72.817952 0 0 0 99.75 158.93555 A 74.480471 72.817952 0 0 0 25.269531 231.75391 A 74.480471 72.817952 0 0 0 68.699219 297.85742 A 213.79885 200.16624 0 0 0 63.839844 339.81641 A 213.79885 200.16624 0 0 0 132.89258 486.79492 A 63.175395 61.180381 0 0 0 114.38086 530.00781 A 63.175395 61.180381 0 0 0 123.26953 561.16211 A 96.758098 95.760599 0 0 0 104.40625 617.78906 A 96.758098 95.760599 0 0 0 201.16406 713.54883 A 96.758098 95.760599 0 0 0 266.36719 688.40234 A 165.25354 128.67829 0 0 0 407.31445 750.125 A 165.25354 128.67829 0 0 0 484.11914 735.30078 A 70.490437 68.495431 0 0 0 539.98242 762.0957 A 70.490437 68.495431 0 0 0 610.47461 693.59961 A 70.490437 68.495431 0 0 0 608.30664 677.02148 A 175.22859 158.27099 0 0 0 712.21875 532.66797 A 175.22859 158.27099 0 0 0 705.4668 489.33203 A 77.472984 84.123021 0 0 0 763.42383 407.98047 A 77.472984 84.123021 0 0 0 751.35352 362.92578 A 103.07566 93.100574 0 0 0 767.41406 313.2168 A 103.07566 93.100574 0 0 0 664.33984 220.11719 A 103.07566 93.100574 0 0 0 632.51953 224.7832 A 65.502903 58.187861 0 0 0 589.14844 183.09961 A 133.66582 129.67581 0 0 0 589.19336 182.21094 A 133.66582 129.67581 0 0 0 455.52734 52.535156 z "
       transform="matrix(0.26458333,0,0,0.26458333,0,85.333333)"
       id="path815" />
  </g>
</svg>
