<?xml version="1.0" encoding="UTF-8" standalone="no"?>
<!-- Created with Inkscape (http://www.inkscape.org/) -->

<svg
   xmlns:dc="http://purl.org/dc/elements/1.1/"
   xmlns:cc="http://creativecommons.org/ns#"
   xmlns:rdf="http://www.w3.org/1999/02/22-rdf-syntax-ns#"
   xmlns:svg="http://www.w3.org/2000/svg"
   xmlns="http://www.w3.org/2000/svg"
   xmlns:xlink="http://www.w3.org/1999/xlink"
   xmlns:sodipodi="http://sodipodi.sourceforge.net/DTD/sodipodi-0.dtd"
   xmlns:inkscape="http://www.inkscape.org/namespaces/inkscape"
   width="40"
   height="40"
   viewBox="0 0 10.583333 10.583333"
   version="1.1"
   id="svg8"
   sodipodi:docname="shotedit-zoom.svg"
   inkscape:export-filename="/home/raster/C/shotedit/shotedit-zoom.png"
   inkscape:export-xdpi="384"
   inkscape:export-ydpi="384"
   inkscape:version="0.92.4 (5da689c313, 2019-01-14)">
  <defs
     id="defs2">
    <linearGradient
       id="linearGradient564">
      <stop
         id="stop565"
         offset="0"
         style="stop-color:#000;stop-opacity:1;" />
      <stop
         id="stop566"
         offset="1"
         style="stop-color:#fff;stop-opacity:1;" />
    </linearGradient>
    <linearGradient
       id="linearGradient567"
       xlink:href="#linearGradient564" />
    <radialGradient
       fy="0.5"
       fx="0.5"
       r="0.5"
       cy="0.5"
       cx="0.5"
       id="radialGradient568"
       xlink:href="#linearGradient564" />
    <radialGradient
       id="radialGradient620"
       xlink:href="#linearGradient564" />
    <filter
       inkscape:collect="always"
       style="color-interpolation-filters:sRGB"
       id="filter6423"
       x="-0.096772678"
       width="1.1935454"
       y="-0.095239563"
       height="1.1904791">
      <feGaussianBlur
         inkscape:collect="always"
         stdDeviation="1.2891239"
         id="feGaussianBlur6425" />
    </filter>
  </defs>
  <sodipodi:namedview
     id="base"
     pagecolor="#404040"
     bordercolor="#202020"
     borderopacity="1"
     inkscape:pageopacity="0"
     inkscape:pageshadow="2"
     inkscape:zoom="13.825"
     inkscape:cx="20"
     inkscape:cy="20"
     inkscape:document-units="mm"
     inkscape:current-layer="layer1"
     showgrid="true"
     units="px"
     width="40px"
     inkscape:showpageshadow="false"
     inkscape:window-width="1206"
     inkscape:window-height="1372"
     inkscape:window-x="0"
     inkscape:window-y="0"
     inkscape:window-maximized="0"
     inkscape:snap-global="true">
    <inkscape:grid
       type="xygrid"
       id="grid4518"
       empspacing="4" />
  </sodipodi:namedview>
  <metadata
     id="metadata5">
    <rdf:RDF>
      <cc:Work
         rdf:about="">
        <dc:format>image/svg+xml</dc:format>
        <dc:type
           rdf:resource="http://purl.org/dc/dcmitype/StillImage" />
        <dc:title></dc:title>
      </cc:Work>
    </rdf:RDF>
  </metadata>
  <g
     inkscape:label="Layer 1"
     inkscape:groupmode="layer"
     id="layer1"
     transform="translate(0,-286.41667)">
    <path
       id="path6417"
       transform="matrix(0.26458333,0,0,0.26458333,0,286.41667)"
       d="M 16 4 A 12 12 0 0 0 4 16 A 12 12 0 0 0 16 28 A 12 12 0 0 0 18.681641 27.681641 L 25.728516 34.728516 A 5.9999999 5.9999999 0 0 0 34.212891 34.728516 A 5.9999999 5.9999999 0 0 0 34.212891 26.242188 L 27.474609 19.505859 A 12 12 0 0 0 28 16 A 12 12 0 0 0 16 4 z M 16 8 A 7.9999996 7.9999996 0 0 1 24 16 A 7.9999996 7.9999996 0 0 1 16 24 A 7.9999996 7.9999996 0 0 1 8 16 A 7.9999996 7.9999996 0 0 1 16 8 z "
       style="opacity:0.5;fill:#000000;fill-opacity:1;stroke:none;stroke-width:0.49999997;stroke-linecap:round;stroke-linejoin:round;stroke-miterlimit:4;stroke-dasharray:none;stroke-opacity:1;filter:url(#filter6423)" />
    <path
       style="opacity:1;fill:#ffffff;fill-opacity:1;stroke:none;stroke-width:0.49999997;stroke-linecap:round;stroke-linejoin:round;stroke-miterlimit:4;stroke-dasharray:none;stroke-opacity:1"
       d="M 16 4 A 12 12 0 0 0 4 16 A 12 12 0 0 0 16 28 A 12 12 0 0 0 18.681641 27.681641 L 25.728516 34.728516 A 5.9999999 5.9999999 0 0 0 34.212891 34.728516 A 5.9999999 5.9999999 0 0 0 34.212891 26.242188 L 27.474609 19.505859 A 12 12 0 0 0 28 16 A 12 12 0 0 0 16 4 z M 16 8 A 7.9999996 7.9999996 0 0 1 24 16 A 7.9999996 7.9999996 0 0 1 16 24 A 7.9999996 7.9999996 0 0 1 8 16 A 7.9999996 7.9999996 0 0 1 16 8 z "
       transform="matrix(0.26458333,0,0,0.26458333,0,286.41667)"
       id="path6405" />
  </g>
</svg>
