<?xml version="1.0" encoding="UTF-8" standalone="no"?>
<!-- Created with Inkscape (http://www.inkscape.org/) -->

<svg
   xmlns:dc="http://purl.org/dc/elements/1.1/"
   xmlns:cc="http://creativecommons.org/ns#"
   xmlns:rdf="http://www.w3.org/1999/02/22-rdf-syntax-ns#"
   xmlns:svg="http://www.w3.org/2000/svg"
   xmlns="http://www.w3.org/2000/svg"
   xmlns:xlink="http://www.w3.org/1999/xlink"
   xmlns:sodipodi="http://sodipodi.sourceforge.net/DTD/sodipodi-0.dtd"
   xmlns:inkscape="http://www.inkscape.org/namespaces/inkscape"
   width="40"
   height="40"
   viewBox="0 0 10.583333 10.583333"
   version="1.1"
   id="svg8"
   sodipodi:docname="shotedit-tool-box-text-kapow.svg"
   inkscape:export-filename="/home/raster/C/shotedit/shotedit-tool-box-text-kapow.png"
   inkscape:export-xdpi="384"
   inkscape:export-ydpi="384"
   inkscape:version="0.92.4 (5da689c313, 2019-01-14)">
  <defs
     id="defs2">
    <linearGradient
       id="linearGradient564">
      <stop
         id="stop565"
         offset="0"
         style="stop-color:#000;stop-opacity:1;" />
      <stop
         id="stop566"
         offset="1"
         style="stop-color:#fff;stop-opacity:1;" />
    </linearGradient>
    <linearGradient
       id="linearGradient567"
       xlink:href="#linearGradient564" />
    <radialGradient
       fy="0.5"
       fx="0.5"
       r="0.5"
       cy="0.5"
       cx="0.5"
       id="radialGradient568"
       xlink:href="#linearGradient564" />
    <radialGradient
       id="radialGradient620"
       xlink:href="#linearGradient564" />
  </defs>
  <sodipodi:namedview
     id="base"
     pagecolor="#404040"
     bordercolor="#202020"
     borderopacity="1"
     inkscape:pageopacity="0"
     inkscape:pageshadow="2"
     inkscape:zoom="13.825"
     inkscape:cx="20"
     inkscape:cy="20"
     inkscape:document-units="mm"
     inkscape:current-layer="layer1"
     showgrid="true"
     units="px"
     width="40px"
     inkscape:showpageshadow="false"
     inkscape:window-width="1206"
     inkscape:window-height="1372"
     inkscape:window-x="0"
     inkscape:window-y="0"
     inkscape:window-maximized="0"
     inkscape:snap-global="true">
    <inkscape:grid
       type="xygrid"
       id="grid4518"
       empspacing="4" />
  </sodipodi:namedview>
  <metadata
     id="metadata5">
    <rdf:RDF>
      <cc:Work
         rdf:about="">
        <dc:format>image/svg+xml</dc:format>
        <dc:type
           rdf:resource="http://purl.org/dc/dcmitype/StillImage" />
        <dc:title></dc:title>
      </cc:Work>
    </rdf:RDF>
  </metadata>
  <g
     inkscape:label="Layer 1"
     inkscape:groupmode="layer"
     id="layer1"
     transform="translate(0,-286.41667)">
    <path
       style="fill:#a12316;fill-opacity:1;fill-rule:evenodd;stroke:#000000;stroke-width:0.17121877;stroke-linecap:round;stroke-linejoin:round;stroke-miterlimit:4;stroke-dasharray:none;stroke-opacity:1"
       d="m 3.4483784,288.44501 1.2524732,1.11726 0.1565591,-1.57982 1.3236367,1.35922 2.0210358,-1.70792 -0.7614466,1.80043 1.4232648,-0.0356 -1.0389835,1.28805 1.3876834,0.75433 -1.6438709,0.73298 1.5655917,1.08168 -2.2131773,-0.0783 0.8966571,2.70421 -1.8787097,-2.02104 -1.4019163,1.85025 -0.2704202,-1.55848 -1.2097751,0.4341 0.014233,-1.28806 -1.7861975,0.17079 1.7079179,-1.43038 -1.7292669,-1.18131 1.8146628,-0.0783 c 0,0 -1.4873119,-1.82178 -1.4588466,-1.82889 0.028465,-0.007 2.0495015,0.83972 2.0495015,0.83972 z"
       id="path816"
       inkscape:connector-curvature="0"
       sodipodi:nodetypes="ccccccccccccccccccccccccc" />
    <path
       style="fill:#ffef74;fill-opacity:1;stroke:none;stroke-width:0.26458332px;stroke-linecap:butt;stroke-linejoin:miter;stroke-opacity:1"
       d="M 3.175,289.59167 H 7.4083332 V 290.65 c 10e-8,-0.26458 -0.2645832,-0.52916 -0.5291665,-0.52916 h -0.79375 c -0.2645834,0 -0.5291667,0.26458 -0.5291668,0.52916 v 2.64584 c 1e-7,0.26458 0.2645834,0.52916 0.5291667,0.52916 h -1.5875 c 0.2645834,0 0.5291667,-0.26458 0.5291667,-0.52916 V 290.65 c 0,-0.26458 -0.2645833,-0.52916 -0.5291667,-0.52916 H 3.7041667 C 3.4395833,290.12084 3.175,290.38542 3.175,290.65 Z"
       id="path5749"
       inkscape:connector-curvature="0"
       sodipodi:nodetypes="ccccccccccccccc" />
  </g>
</svg>
