<?xml version="1.0" encoding="UTF-8" standalone="no"?>
<!-- Created with Inkscape (http://www.inkscape.org/) -->

<svg
   xmlns:dc="http://purl.org/dc/elements/1.1/"
   xmlns:cc="http://creativecommons.org/ns#"
   xmlns:rdf="http://www.w3.org/1999/02/22-rdf-syntax-ns#"
   xmlns:svg="http://www.w3.org/2000/svg"
   xmlns="http://www.w3.org/2000/svg"
   xmlns:xlink="http://www.w3.org/1999/xlink"
   xmlns:sodipodi="http://sodipodi.sourceforge.net/DTD/sodipodi-0.dtd"
   xmlns:inkscape="http://www.inkscape.org/namespaces/inkscape"
   width="40"
   height="40"
   viewBox="0 0 10.583333 10.583333"
   version="1.1"
   id="svg8"
   sodipodi:docname="shotedit-tool-box-text-kaboom.svg"
   inkscape:export-filename="/home/raster/C/shotedit/shotedit-tool-box-text-kaboom.png"
   inkscape:export-xdpi="384"
   inkscape:export-ydpi="384"
   inkscape:version="0.92.4 (5da689c313, 2019-01-14)">
  <defs
     id="defs2">
    <linearGradient
       id="linearGradient564">
      <stop
         id="stop565"
         offset="0"
         style="stop-color:#000;stop-opacity:1;" />
      <stop
         id="stop566"
         offset="1"
         style="stop-color:#fff;stop-opacity:1;" />
    </linearGradient>
    <linearGradient
       id="linearGradient567"
       xlink:href="#linearGradient564" />
    <radialGradient
       fy="0.5"
       fx="0.5"
       r="0.5"
       cy="0.5"
       cx="0.5"
       id="radialGradient568"
       xlink:href="#linearGradient564" />
    <radialGradient
       id="radialGradient620"
       xlink:href="#linearGradient564" />
  </defs>
  <sodipodi:namedview
     id="base"
     pagecolor="#404040"
     bordercolor="#202020"
     borderopacity="1"
     inkscape:pageopacity="0"
     inkscape:pageshadow="2"
     inkscape:zoom="13.825"
     inkscape:cx="20"
     inkscape:cy="20"
     inkscape:document-units="mm"
     inkscape:current-layer="layer1"
     showgrid="true"
     units="px"
     width="40px"
     inkscape:showpageshadow="false"
     inkscape:window-width="1206"
     inkscape:window-height="1372"
     inkscape:window-x="0"
     inkscape:window-y="0"
     inkscape:window-maximized="0"
     inkscape:snap-global="true">
    <inkscape:grid
       type="xygrid"
       id="grid4518"
       empspacing="4" />
  </sodipodi:namedview>
  <metadata
     id="metadata5">
    <rdf:RDF>
      <cc:Work
         rdf:about="">
        <dc:format>image/svg+xml</dc:format>
        <dc:type
           rdf:resource="http://purl.org/dc/dcmitype/StillImage" />
        <dc:title></dc:title>
      </cc:Work>
    </rdf:RDF>
  </metadata>
  <g
     inkscape:label="Layer 1"
     inkscape:groupmode="layer"
     id="layer1"
     transform="translate(0,-286.41667)">
    <path
       style="fill:#b52310;fill-opacity:1;stroke:#000000;stroke-width:0.17578353;stroke-linecap:round;stroke-linejoin:round;stroke-miterlimit:4;stroke-dasharray:none;stroke-opacity:1"
       d="m 4.3314432,287.61382 c 0,0 1.1004293,1.40402 1.9068788,1.5708 1.0227359,0.21152 3.0100919,-0.86942 3.0100919,-0.86942 0,0 -1.2036836,1.33399 -1.1032133,2.12606 0.087676,0.69121 1.3954552,1.55619 1.3954552,1.55619 0,0 -1.5080396,0.0356 -1.9361025,0.68677 -0.7111614,1.0818 0.8621136,3.17083 0.8621136,3.17083 0,0 -1.4784428,-2.10697 -2.7251565,-2.02378 -0.8372843,0.0559 -1.2639462,1.3297 -1.2639462,1.3297 0,0 0.020181,-1.93614 -0.6940747,-2.2941 -0.817531,-0.40971 -2.5790352,0.93518 -2.5790352,0.93518 0,0 1.7868232,-1.34302 1.6292489,-2.25757 -0.069854,-0.40543 -1.0155408,-0.70138 -1.0155408,-0.70138 0,0 0.791779,-0.18432 0.9132561,-0.73791 0.2520046,-1.14843 -1.6730852,-2.63018 -1.6730852,-2.63018 0,0 1.777533,1.38001 2.7982167,0.8475 0.4271924,-0.22287 0.4748932,-0.70869 0.4748932,-0.70869 z"
       id="path822"
       inkscape:connector-curvature="0"
       sodipodi:nodetypes="cscscscscscscscsc" />
    <path
       style="fill:#ffef74;fill-opacity:1;stroke:none;stroke-width:0.26458332px;stroke-linecap:butt;stroke-linejoin:miter;stroke-opacity:1"
       d="M 3.175,289.59167 H 7.4083332 V 290.65 c 10e-8,-0.26458 -0.2645832,-0.52916 -0.5291665,-0.52916 h -0.79375 c -0.2645834,0 -0.5291667,0.26458 -0.5291668,0.52916 v 2.64584 c 1e-7,0.26458 0.2645834,0.52916 0.5291667,0.52916 h -1.5875 c 0.2645834,0 0.5291667,-0.26458 0.5291667,-0.52916 V 290.65 c 0,-0.26458 -0.2645833,-0.52916 -0.5291667,-0.52916 H 3.7041667 C 3.4395833,290.12084 3.175,290.38542 3.175,290.65 Z"
       id="path5749"
       inkscape:connector-curvature="0"
       sodipodi:nodetypes="ccccccccccccccc" />
  </g>
</svg>
