<?xml version="1.0" encoding="UTF-8" standalone="no"?>
<!-- Created with Inkscape (http://www.inkscape.org/) -->

<svg
   xmlns:dc="http://purl.org/dc/elements/1.1/"
   xmlns:cc="http://creativecommons.org/ns#"
   xmlns:rdf="http://www.w3.org/1999/02/22-rdf-syntax-ns#"
   xmlns:svg="http://www.w3.org/2000/svg"
   xmlns="http://www.w3.org/2000/svg"
   xmlns:sodipodi="http://sodipodi.sourceforge.net/DTD/sodipodi-0.dtd"
   xmlns:inkscape="http://www.inkscape.org/namespaces/inkscape"
   width="40"
   height="40"
   viewBox="0 0 10.583333 10.583333"
   version="1.1"
   id="svg8"
   sodipodi:docname="shotedit-tool-box-finger.svg"
   inkscape:export-filename="/home/raster/C/shotedit/shotedit-tool-box-finger.png"
   inkscape:export-xdpi="384"
   inkscape:export-ydpi="384"
   inkscape:version="0.92.4 (5da689c313, 2019-01-14)">
  <defs
     id="defs2">
    <filter
       inkscape:collect="always"
       style="color-interpolation-filters:sRGB"
       id="filter5455"
       x="-0.068826904"
       width="1.1376538"
       y="-0.15862614"
       height="1.3172523">
      <feGaussianBlur
         inkscape:collect="always"
         stdDeviation="0.91220737"
         id="feGaussianBlur5457" />
    </filter>
  </defs>
  <sodipodi:namedview
     id="base"
     pagecolor="#404040"
     bordercolor="#202020"
     borderopacity="1"
     inkscape:pageopacity="0"
     inkscape:pageshadow="2"
     inkscape:zoom="13.825"
     inkscape:cx="20"
     inkscape:cy="20"
     inkscape:document-units="mm"
     inkscape:current-layer="layer1"
     showgrid="true"
     units="px"
     width="40px"
     inkscape:showpageshadow="false"
     inkscape:window-width="1206"
     inkscape:window-height="1372"
     inkscape:window-x="0"
     inkscape:window-y="0"
     inkscape:window-maximized="0"
     inkscape:snap-global="false">
    <inkscape:grid
       type="xygrid"
       id="grid4518"
       empspacing="4" />
  </sodipodi:namedview>
  <metadata
     id="metadata5">
    <rdf:RDF>
      <cc:Work
         rdf:about="">
        <dc:format>image/svg+xml</dc:format>
        <dc:type
           rdf:resource="http://purl.org/dc/dcmitype/StillImage" />
        <dc:title></dc:title>
      </cc:Work>
    </rdf:RDF>
  </metadata>
  <g
     inkscape:label="Layer 1"
     inkscape:groupmode="layer"
     id="layer1"
     transform="translate(0,-286.41667)">
    <path
       style="fill:#000000;fill-opacity:1;stroke:none;stroke-width:0.99999994px;stroke-linecap:butt;stroke-linejoin:miter;stroke-opacity:1;opacity:0.5;filter:url(#filter5455)"
       d="M 24.189453 12.546875 C 23.483695 12.559121 22.284333 12.565713 21.523438 12.5625 C 19.736532 12.554941 19.433688 12.595015 18.003906 13.019531 C 17.389438 13.201704 17.121389 13.262873 16.501953 13.367188 C 15.921176 13.464964 15.891528 13.478233 14.839844 14.048828 C 14.391661 14.292003 13.841492 14.577389 13.615234 14.683594 C 13.273468 14.843846 13.17235 14.912521 13.025391 15.087891 C 12.912939 15.222064 12.775642 15.332862 12.646484 15.392578 C 12.406193 15.503885 12.407366 15.505753 12.296875 15.076172 C 12.192432 14.670099 11.965377 14.46527 11.527344 14.384766 C 11.4013 14.361711 11.335777 14.310505 11.158203 14.087891 C 10.761724 13.590883 10.673812 13.547371 9.9746094 13.503906 C 9.7430339 13.490678 9.5082607 13.46837 9.453125 13.457031 C 9.2870628 13.423016 5.6521447 13.407391 5.2617188 13.441406 C 5.0622394 13.458414 4.8341523 13.493075 4.7558594 13.519531 L 4.6132812 13.566406 L 4.5878906 14.175781 C 4.5737363 14.511517 4.5257437 15.011582 4.4804688 15.287109 C 4.4351938 15.562713 4.3801246 15.932871 4.359375 16.109375 C 4.3386443 16.285766 4.3036248 16.529068 4.28125 16.650391 C 4.2588714 16.771713 4.2231687 17.431518 4.2011719 18.115234 C 4.179175 18.798951 4.1499471 19.539419 4.1367188 19.759766 C 4.1211509 20.019381 4.1361482 20.362847 4.1777344 20.734375 C 4.2235989 21.144189 4.2401832 21.637126 4.2363281 22.458984 C 4.2303565 23.730417 4.2871124 24.410031 4.4628906 25.148438 C 4.5896824 25.681011 4.6886573 25.903613 4.8183594 25.953125 C 4.9588044 26.006416 5.8961618 26.103214 6.9882812 26.175781 C 7.4955449 26.209797 8.0302837 26.248427 8.1777344 26.259766 C 8.3251858 26.272994 8.6233902 26.297509 8.8398438 26.316406 L 8.8398438 26.318359 C 9.056298 26.337257 9.4173599 26.345576 9.6425781 26.341797 C 10.041742 26.33197 10.058882 26.328852 10.304688 26.175781 L 10.556641 26.017578 L 11.078125 26.017578 C 11.544493 26.017578 11.614675 26.007924 11.740234 25.929688 C 11.959975 25.792566 12.127379 25.596413 12.236328 25.349609 C 12.291437 25.224885 12.354616 25.112774 12.376953 25.097656 C 12.399309 25.08405 12.528449 25.128856 12.664062 25.197266 C 12.985084 25.359332 13.903152 25.710132 14.185547 25.779297 C 14.567164 25.872651 15.912722 26.110832 16.310547 26.154297 C 16.520069 26.176596 17.152443 26.199345 17.714844 26.203125 C 18.277245 26.206905 18.998562 26.22537 19.318359 26.248047 C 19.719948 26.274504 20.073197 26.270471 20.460938 26.240234 C 21.189119 26.182181 22.8053 25.904779 23.078125 25.791016 C 23.286352 25.705598 23.294433 25.70654 23.603516 25.773438 C 23.943828 25.846004 24.81222 25.85489 25.292969 25.791016 C 26.238597 25.665498 26.974813 25.365131 27.347656 24.953125 C 27.501483 24.783311 27.590173 24.644439 27.638672 24.490234 C 27.714346 24.24963 27.704887 24.139613 27.576172 23.716797 C 27.533516 23.576576 27.498047 23.448585 27.498047 23.429688 C 27.498047 23.411924 27.613682 23.332142 27.753906 23.253906 C 28.114144 23.05242 28.400618 22.782659 28.482422 22.568359 C 28.603231 22.252013 28.496214 21.554302 28.257812 21.115234 C 28.041151 20.71623 28.045772 20.67435 28.359375 20.433594 C 29.030944 19.917877 29.270967 19.267272 29.064453 18.513672 C 28.832105 17.665848 28.413387 17.202779 27.369141 16.636719 C 26.963715 16.41675 26.824281 16.312491 26.871094 16.265625 C 26.889448 16.247105 27.591805 16.220323 28.433594 16.208984 C 29.275383 16.195756 29.99232 16.171495 30.025391 16.160156 C 30.085142 16.136723 30.312915 16.113272 30.927734 16.066406 C 31.104174 16.0528 31.825492 16.07158 32.53125 16.109375 C 34.067943 16.189501 34.511507 16.193914 34.777344 16.128906 C 35.261885 16.010418 35.647992 15.740358 35.830078 15.394531 C 35.925863 15.212623 35.939293 15.143019 35.939453 14.806641 C 35.939696 14.32751 35.802224 13.941095 35.521484 13.628906 C 35.374589 13.465631 35.208414 13.406486 34.658203 13.320312 C 34.392449 13.278738 34.048917 13.207086 33.894531 13.162109 C 33.478921 13.040787 32.635713 12.921875 32.189453 12.921875 C 31.973887 12.921875 31.539294 12.893391 31.222656 12.859375 C 30.906018 12.824603 30.312313 12.790762 29.904297 12.783203 C 29.49628 12.775644 29.073166 12.755479 28.962891 12.744141 C 28.772734 12.722219 28.154234 12.675078 27.357422 12.619141 C 26.438716 12.556023 25.367901 12.527977 24.189453 12.546875 z "
       transform="matrix(0.26458333,0,0,0.26458333,0,286.41667)"
       id="path5446" />
    <g
       id="g5444">
      <path
         inkscape:connector-curvature="0"
         id="path5440"
         d="m 2.4975135,290.07203 -0.6506931,1.19613 0.5167269,2.01906 0.6985383,-0.0287 0.1435351,-0.1244 0.09569,-0.19138 1.6937161,0.26793 2.1817359,-0.18181 0.1052592,-0.24879 -0.1243973,-0.2488 0.3349157,-0.21052 -0.09569,-0.50715 0.2392257,-0.34449 -0.086121,-0.4019 -0.2870705,-0.20095 -0.2966394,-0.23922 2.286995,-0.01 0.2009495,-0.2488 -0.1339662,-0.35405 -2.4879446,-0.23923 -1.8372513,0.11483 -1.062161,0.28707 -0.6889692,0.44018 -0.057414,-0.2775 -0.3731919,-0.16268 z"
         style="fill:#ffffff;stroke:none;stroke-width:0.26458332px;stroke-linecap:butt;stroke-linejoin:miter;stroke-opacity:1;fill-opacity:1" />
      <path
         inkscape:connector-curvature="0"
         id="path5436"
         d="m 2.3387799,293.37961 c -0.05727,-0.005 -0.1360479,-0.0114 -0.1750611,-0.0149 -0.039013,-0.003 -0.1807445,-0.0136 -0.314958,-0.0226 -0.2889566,-0.0192 -0.5367899,-0.0446 -0.5739493,-0.0587 -0.034317,-0.0131 -0.060338,-0.0721 -0.093885,-0.21301 -0.046508,-0.19537 -0.061708,-0.37529 -0.060128,-0.71169 0.00102,-0.21745 -0.00343,-0.34779 -0.015565,-0.45622 -0.011003,-0.0983 -0.014752,-0.18921 -0.010633,-0.2579 0.0035,-0.0583 0.011124,-0.2541 0.016944,-0.435 0.00582,-0.1809 0.015425,-0.35516 0.021346,-0.38726 0.00592,-0.0321 0.015253,-0.0966 0.020738,-0.14327 0.00549,-0.0467 0.019774,-0.14458 0.031753,-0.2175 0.011979,-0.0729 0.024844,-0.20527 0.028589,-0.2941 l 0.00681,-0.16152 0.037663,-0.0124 c 0.020715,-0.007 0.080846,-0.0161 0.1336249,-0.0206 0.1033002,-0.009 1.065257,-0.005 1.1091943,0.004 0.014588,0.003 0.076656,0.009 0.137927,0.0125 0.1849974,0.0115 0.2084245,0.023 0.3133263,0.1545 0.046983,0.0589 0.063876,0.0726 0.097225,0.0787 0.1158963,0.0213 0.1763891,0.0756 0.2040229,0.18304 0.029234,0.11366 0.028571,0.11305 0.092148,0.0836 0.034173,-0.0158 0.070807,-0.0453 0.1005599,-0.0808 0.038883,-0.0464 0.065222,-0.0645 0.1556477,-0.1069 0.059864,-0.0281 0.2058657,-0.10366 0.3244474,-0.168 0.2782582,-0.15097 0.2857926,-0.15406 0.4394565,-0.17993 0.1638924,-0.0276 0.2350867,-0.0442 0.3976647,-0.0924 0.3782963,-0.11232 0.458328,-0.1227 0.9311133,-0.1207 0.2013203,8.5e-4 0.5188175,-7.6e-4 0.7055494,-0.004 0.3117977,-0.005 0.5950972,0.002 0.8381714,0.0187 0.2108233,0.0148 0.3740784,0.0277 0.4243906,0.0335 0.029177,0.003 0.1413751,0.008 0.2493295,0.01 0.1079543,0.002 0.2648257,0.0111 0.348603,0.0203 0.083777,0.009 0.1989874,0.0167 0.2560226,0.0167 0.1180728,0 0.3410824,0.0314 0.451046,0.0635 0.040848,0.0119 0.131798,0.0307 0.202112,0.0417 0.1455767,0.0228 0.189606,0.0386 0.228472,0.0818 0.074279,0.0826 0.1105272,0.18487 0.110463,0.31164 -4.24e-5,0.089 -0.00341,0.10718 -0.028753,0.15531 -0.048177,0.0915 -0.150678,0.16289 -0.2788796,0.19424 -0.070336,0.0172 -0.1875635,0.0162 -0.5941468,-0.005 -0.1867319,-0.01 -0.3777076,-0.0149 -0.4243906,-0.0113 -0.162671,0.0124 -0.2229104,0.0187 -0.2387197,0.0249 -0.00875,0.003 -0.1981428,0.009 -0.4208662,0.0125 -0.2227233,0.003 -0.4089247,0.0102 -0.4137808,0.0151 -0.012386,0.0124 0.024831,0.0401 0.1320998,0.0983 0.2762903,0.14977 0.3868467,0.27222 0.4483221,0.49654 0.05464,0.19939 -0.00855,0.37183 -0.1862359,0.50828 -0.082974,0.0637 -0.084638,0.0747 -0.027313,0.18027 0.063077,0.11617 0.091778,0.30053 0.059814,0.38423 -0.021644,0.0567 -0.097687,0.12817 -0.193,0.18148 -0.037101,0.0207 -0.067456,0.0416 -0.067456,0.0463 0,0.005 0.00924,0.0389 0.020526,0.076 0.034056,0.11187 0.036385,0.141 0.016363,0.20466 -0.012832,0.0408 -0.035967,0.0779 -0.076667,0.12283 -0.098648,0.10901 -0.2935611,0.18848 -0.5437585,0.22169 -0.127198,0.0169 -0.3571038,0.0142 -0.4471448,-0.005 -0.081778,-0.0177 -0.083761,-0.0176 -0.1388545,0.005 -0.072185,0.0301 -0.4998127,0.10346 -0.6924774,0.11882 -0.1025897,0.008 -0.1961247,0.009 -0.3023783,0.002 -0.084613,-0.006 -0.2755886,-0.0111 -0.4243906,-0.0121 -0.1488019,-0.001 -0.3159057,-0.007 -0.3713417,-0.0129 -0.1052577,-0.0115 -0.461225,-0.0742 -0.5621946,-0.0989 -0.074717,-0.0183 -0.3176205,-0.11143 -0.4025575,-0.15431 -0.035881,-0.0181 -0.070077,-0.0299 -0.075992,-0.0263 -0.00591,0.004 -0.022683,0.0337 -0.037264,0.0667 -0.028826,0.0653 -0.073366,0.11729 -0.1315057,0.15357 -0.033221,0.0207 -0.051668,0.0232 -0.1750611,0.0232 H 2.7930299 l -0.066718,0.0416 c -0.065036,0.0405 -0.069449,0.0416 -0.1750612,0.0442 -0.059589,10e-4 -0.1552008,-0.001 -0.212471,-0.006 z m 0.6435671,-0.17279 c 0.017227,-0.0126 0.016659,-0.0215 -0.00959,-0.15119 -0.015348,-0.0758 -0.029598,-0.14053 -0.031667,-0.14388 -0.01439,-0.0233 -0.060601,-0.3489 -0.073671,-0.5191 -0.00336,-0.0438 -0.00819,-0.0987 -0.010741,-0.12201 -0.020064,-0.1839 -0.027572,-1.04559 -0.010816,-1.24135 0.021014,-0.2455 0.061828,-0.50573 0.09088,-0.57944 0.042647,-0.10819 0.014926,-0.13815 -0.1275708,-0.13783 -0.1378362,3e-4 -0.1678085,0.0261 -0.2095062,0.18012 -0.091422,0.33777 -0.1106232,0.43087 -0.1293869,0.62734 -0.020107,0.21053 -0.029145,0.63747 -0.016957,0.80103 0.00261,0.035 0.00753,0.11379 0.010934,0.17506 0.025872,0.46554 0.083716,0.7982 0.1765753,1.01548 0.033947,0.0794 0.044832,0.0883 0.1256785,0.10182 0.062945,0.0106 0.1983109,0.007 0.2158415,-0.006 z m 0.1619167,-0.0598 c 0.018118,-0.011 0.043715,-0.0375 0.056883,-0.0588 0.023086,-0.0374 0.023262,-0.0395 0.00493,-0.0598 -0.010457,-0.0115 -0.057539,-0.0403 -0.1046266,-0.0639 l -0.085614,-0.0429 -0.00343,0.034 c -0.00612,0.0607 0.052058,0.21165 0.081556,0.21158 0.00955,-2e-5 0.032182,-0.009 0.050299,-0.0201 z m -0.6323926,-0.0368 c 0,-0.0138 -0.00961,-0.0552 -0.021356,-0.092 -0.023933,-0.0749 -0.028319,-0.0984 -0.074378,-0.39744 -0.080423,-0.52223 -0.09034,-0.66145 -0.089425,-1.25536 6.568e-4,-0.42625 -0.012245,-0.41063 -0.037872,0.0458 -0.011968,0.21319 -0.018862,0.31865 -0.027184,0.41587 -0.00482,0.0563 0.00629,0.23845 0.022191,0.36395 0.00259,0.0204 0.00974,0.0801 0.015891,0.13262 0.020716,0.17685 0.093605,0.54069 0.1264673,0.63129 0.051447,0.14183 0.067681,0.18036 0.075983,0.18036 0.00533,0 0.00968,-0.0113 0.00968,-0.0251 z m 2.571964,-0.18443 c -0.00819,-0.0335 -0.019964,-0.0992 -0.026164,-0.14586 -0.0062,-0.0467 -0.015192,-0.10244 -0.019982,-0.12391 -0.00557,-0.025 -0.0044,-0.0476 0.00326,-0.0628 0.021161,-0.0421 0.035924,-0.0346 0.048215,0.0244 0.013594,0.0652 0.073712,0.2101 0.087194,0.2101 0.01216,0 0.011602,-0.0135 -0.0036,-0.0871 -0.011902,-0.0576 -0.011276,-0.0633 0.00918,-0.0838 l 0.021951,-0.022 0.039212,0.0701 c 0.021566,0.0386 0.043695,0.0673 0.049175,0.064 0.014507,-0.009 0.011528,-0.0486 -0.00595,-0.0792 -0.017473,-0.0306 -0.020923,-0.0849 -0.00539,-0.0849 0.00579,0 0.038781,0.0561 0.073319,0.12467 0.049404,0.0981 0.064505,0.12035 0.070813,0.10446 0.00441,-0.0111 0.00245,-0.041 -0.00436,-0.0665 -0.0068,-0.0255 -0.012373,-0.0583 -0.012373,-0.073 0,-0.0147 -0.012188,-0.0556 -0.027084,-0.091 -0.025494,-0.0606 -0.026077,-0.0659 -0.00993,-0.0905 0.00943,-0.0144 0.022789,-0.0243 0.029681,-0.022 0.00689,0.002 0.020502,0.0385 0.030245,0.0804 0.024398,0.10498 0.064233,0.17137 0.1028279,0.17137 0.039515,0 0.070625,-0.0237 0.061683,-0.047 -0.00506,-0.0132 -0.01649,-0.0173 -0.0411,-0.0148 -0.030559,0.003 -0.035132,-1.5e-4 -0.044085,-0.0313 -0.00833,-0.029 -0.00663,-0.0374 0.010199,-0.0505 0.011103,-0.009 0.03321,-0.0186 0.049126,-0.0222 0.034357,-0.008 0.049223,-0.0234 0.053093,-0.0563 0.0034,-0.0289 -0.037787,-0.0507 -0.055438,-0.0294 -0.00588,0.007 -0.020234,0.0248 -0.031903,0.0394 l -0.021216,0.0265 -0.02122,-0.025 c -0.015446,-0.0182 -0.02122,-0.0405 -0.02122,-0.0817 0,-0.0549 -0.016391,-0.11073 -0.032526,-0.11073 -0.00434,0 -0.014321,0.0203 -0.022169,0.0451 -0.010168,0.0321 -0.020741,0.046 -0.036791,0.0483 -0.030152,0.004 -0.037618,-0.0175 -0.041131,-0.11993 -0.00221,-0.0645 0.00101,-0.0893 0.013449,-0.10344 0.023077,-0.0262 0.028179,-0.0238 0.044228,0.0212 0.033451,0.0937 0.033098,0.0931 0.043557,0.0766 0.00541,-0.009 0.00991,-0.0254 0.010001,-0.0375 1.093e-4,-0.0147 0.013171,-0.0282 0.039949,-0.0411 l 0.039787,-0.0192 -0.026524,-0.0104 c -0.014588,-0.006 -0.037267,-0.0146 -0.050396,-0.0196 -0.027481,-0.0106 -0.03261,-0.0529 -0.00881,-0.0726 0.012832,-0.0106 0.011141,-0.0211 -0.011442,-0.0704 -0.023078,-0.0504 -0.025563,-0.0666 -0.019241,-0.12566 0.00399,-0.0373 0.00312,-0.0752 -0.00193,-0.0842 -0.00521,-0.009 -0.00499,-0.057 4.998e-4,-0.11012 0.010287,-0.0994 0.00461,-0.1566 -0.018721,-0.18851 -0.013747,-0.0188 -0.015859,-0.0186 -0.055566,0.006 -0.022702,0.0139 -0.072309,0.0543 -0.1102391,0.0897 -0.03793,0.0354 -0.078947,0.0713 -0.091148,0.0799 -0.012202,0.009 -0.034419,0.035 -0.049373,0.0588 -0.020436,0.0325 -0.039959,0.0479 -0.078608,0.0621 -0.028281,0.0104 -0.1087128,0.0512 -0.1787372,0.0907 -0.1566827,0.0884 -0.1894198,0.10029 -0.4990458,0.18147 l -0.1693694,0.0444 -0.2121953,10e-4 c -0.1808425,0.001 -0.2221809,-0.002 -0.2797778,-0.0191 -0.068024,-0.0205 -0.1286985,-0.0605 -0.1286985,-0.0849 0,-0.0115 0.084814,-0.0804 0.099022,-0.0804 0.00295,0 0.013383,0.0241 0.023176,0.0536 l 0.017806,0.0536 0.04341,-0.003 0.04341,-0.003 -0.0027,-0.0648 -0.0027,-0.0648 0.039324,-0.0187 c 0.038984,-0.0185 0.045508,-0.0185 0.1650365,8e-4 0.069467,0.0112 0.065937,-0.0274 -0.00732,-0.08 -0.025921,-0.0186 -0.04713,-0.0383 -0.04713,-0.0438 0,-0.015 0.055372,-0.0119 0.1060976,0.006 0.024809,0.009 0.057064,0.0159 0.071677,0.0159 0.025257,0 0.026301,-0.002 0.021131,-0.0483 l -0.00544,-0.0482 0.032921,0.003 c 0.050011,0.005 0.050029,-0.0273 4.24e-5,-0.0741 -0.033492,-0.0314 -0.037396,-0.0389 -0.021896,-0.0423 0.010374,-0.002 0.039871,0.008 0.065548,0.0232 0.057735,0.0338 0.1012595,0.0365 0.1012595,0.006 0,-0.0247 -0.035451,-0.0636 -0.05798,-0.0636 -0.00855,0 -0.020652,-0.01 -0.026898,-0.0212 -0.016616,-0.0311 0.00431,-0.0277 0.1000561,0.0159 0.044817,0.0204 0.085995,0.0371 0.091508,0.0371 0.00551,0 0.010022,-0.0236 0.010022,-0.0523 0,-0.0437 0.00364,-0.0535 0.022122,-0.0593 0.014989,-0.005 0.029749,1.4e-4 0.045775,0.0152 0.030405,0.0286 0.040512,0.0281 0.036286,-0.002 -0.00242,-0.017 -0.011678,-0.0248 -0.032334,-0.0272 -0.029626,-0.003 -0.071849,-0.0461 -0.071849,-0.0727 0,-0.0245 0.032193,-0.0291 0.065576,-0.009 0.037178,0.022 0.041562,0.0192 0.042881,-0.0272 5.74e-4,-0.0202 0.00931,-0.0422 0.02047,-0.0515 0.017819,-0.0149 0.018201,-0.0199 0.00451,-0.0587 -0.00823,-0.0233 -0.011029,-0.0439 -0.00623,-0.0456 0.0048,-0.002 0.026652,0.006 0.048558,0.0181 0.021906,0.0117 0.044425,0.0185 0.050043,0.015 0.00595,-0.004 0.00797,-0.0437 0.00485,-0.0959 -0.0052,-0.0867 -0.00455,-0.0899 0.020158,-0.10117 0.021218,-0.01 0.031032,-0.008 0.058148,0.0125 0.022979,0.017 0.035947,0.0208 0.043868,0.0129 0.00792,-0.008 -0.00807,-0.0299 -0.054086,-0.0742 -0.088658,-0.0854 -0.088917,-0.13004 -5.379e-4,-0.0926 0.012413,0.005 0.020729,-0.002 0.030576,-0.0254 0.010876,-0.0262 0.017929,-0.0313 0.035998,-0.0258 0.01236,0.004 0.03001,0.0134 0.039223,0.0215 0.019583,0.0171 0.037757,0.0189 0.046684,0.004 0.00933,-0.0151 -0.030271,-0.0869 -0.078998,-0.1432 -0.056614,-0.0654 -0.070042,-0.0909 -0.05332,-0.10124 0.020809,-0.0129 0.048653,-3.9e-4 0.073168,0.0328 0.012582,0.017 0.029384,0.031 0.037338,0.031 0.030033,0 0.026468,-0.0353 -0.010197,-0.10082 -0.060512,-0.1082 -0.00531,-0.103 0.084709,0.008 0.027216,0.0335 0.054145,0.061 0.059843,0.061 0.022515,0 0.022969,-0.0372 9.21e-4,-0.0755 -0.022673,-0.0394 -0.02929,-0.0738 -0.016622,-0.0865 0.011983,-0.012 0.051006,0.0349 0.088682,0.10661 0.050181,0.0955 0.070118,0.0951 0.066953,-10e-4 -0.00266,-0.0809 0.00847,-0.0883 0.044821,-0.0299 0.05338,0.0857 0.064445,0.10098 0.075934,0.10475 0.00912,0.003 0.00949,-0.007 0.00142,-0.0387 -0.011337,-0.0447 -0.0051,-0.0808 0.0121,-0.0702 0.00552,0.003 0.025001,0.0324 0.043293,0.0643 0.035398,0.0619 0.05283,0.0731 0.053065,0.0342 2.165e-4,-0.0356 0.011641,-0.0716 0.02275,-0.0716 0.0054,0 0.02465,0.0239 0.042788,0.053 0.038885,0.0625 0.061635,0.0689 0.061635,0.0172 0,-0.0474 0.026353,-0.071 0.047598,-0.0427 0.00831,0.0111 0.020674,0.0333 0.02748,0.0493 0.022954,0.0541 0.041629,0.029 0.041629,-0.0559 0,-0.0783 0.01779,-0.0729 0.043345,0.0131 0.012628,0.0425 0.029526,0.0843 0.037552,0.0928 0.012447,0.0133 0.014591,3.8e-4 0.014591,-0.0875 0,-0.0567 0.00358,-0.10292 0.00796,-0.10273 0.023723,10e-4 0.047243,0.0362 0.067075,0.10043 l 0.022274,0.0721 0.026045,-0.0281 c 0.045413,-0.049 0.060939,-0.0319 0.061053,0.067 l 6.37e-5,0.0588 0.037734,0.005 c 0.020754,0.003 0.038331,0.0113 0.03906,0.0186 7.3e-4,0.007 0.00192,0.0375 0.00265,0.0671 l 0.00133,0.0539 0.034482,-0.003 c 0.033999,-0.003 0.034615,-0.003 0.044009,0.0527 0.00924,0.0545 0.010498,0.0561 0.041911,0.053 0.03033,-0.003 0.033298,8e-5 0.046791,0.0473 0.00792,0.0277 0.017952,0.0504 0.022286,0.0504 0.00433,0 0.018844,-0.0226 0.032245,-0.0502 0.023069,-0.0475 0.025171,-0.0491 0.039482,-0.0295 0.00831,0.0114 0.011948,0.028 0.00808,0.0369 -0.023184,0.0534 -0.017694,0.0715 0.032187,0.10578 0.026888,0.0185 0.065652,0.0406 0.086144,0.0492 0.052601,0.022 0.056534,0.003 0.017932,-0.0874 -0.053711,-0.12557 -0.058211,-0.14082 -0.051484,-0.17445 0.00361,-0.0181 0.026161,-0.0574 0.050109,-0.0875 0.040216,-0.0505 0.043052,-0.0582 0.037133,-0.10159 -0.013297,-0.0975 -0.1270853,-0.26057 -0.2906245,-0.41663 -0.09452,-0.0902 -0.1277844,-0.10998 -0.2832974,-0.16844 -0.058354,-0.0219 -0.1478796,-0.0573 -0.1989464,-0.0785 -0.051067,-0.0212 -0.1463166,-0.0507 -0.2116661,-0.0654 -0.06535,-0.0147 -0.1333788,-0.0343 -0.1511759,-0.0436 -0.040333,-0.021 -0.2348,-0.0238 -0.2976025,-0.004 -0.023341,0.007 -0.1008009,0.0175 -0.1721318,0.0229 -0.1060242,0.008 -0.143781,0.0156 -0.2068904,0.0418 -0.060088,0.025 -0.084252,0.0302 -0.109027,0.0235 -0.058091,-0.0158 -0.1372067,0.0124 -0.2401461,0.0855 -0.027044,0.0192 -0.079562,0.0559 -0.1167074,0.0815 -0.037145,0.0256 -0.087395,0.0647 -0.1116669,0.0869 -0.024272,0.0221 -0.062532,0.0452 -0.085022,0.0512 -0.022491,0.006 -0.069474,0.0353 -0.1044067,0.0649 -0.038003,0.0323 -0.082028,0.0589 -0.109605,0.0664 -0.037251,0.0101 -0.051179,0.0211 -0.072624,0.0577 -0.027735,0.0473 -0.029175,0.0482 -0.086669,0.0496 -0.031018,8.1e-4 -0.037195,0.006 -0.047744,0.0381 -0.010802,0.0331 -0.017041,0.0378 -0.057502,0.0432 -0.033265,0.004 -0.053098,0.015 -0.074268,0.0394 -0.020352,0.0235 -0.039852,0.0343 -0.066018,0.0364 -0.031173,0.003 -0.040278,0.009 -0.05672,0.0431 -0.012988,0.0266 -0.034434,0.0476 -0.063659,0.0624 -0.02424,0.0123 -0.048477,0.03 -0.05386,0.0395 -0.00538,0.009 -0.039366,0.0482 -0.075517,0.0861 -0.080444,0.0844 -0.089739,0.10162 -0.089822,0.1664 -3.18e-5,0.0288 -0.00802,0.065 -0.018334,0.0829 -0.016303,0.0284 -0.018293,0.0712 -0.018502,0.39786 -3.055e-4,0.47951 0.015851,0.69704 0.063672,0.85721 0.017524,0.0587 0.039822,0.0764 0.096031,0.0764 0.021356,0 0.031934,0.0122 0.05994,0.069 0.018704,0.0379 0.040144,0.069 0.047645,0.069 0.016668,0 0.01675,-0.003 0.00145,-0.0541 -0.00953,-0.0318 -0.00925,-0.0442 0.0013,-0.0569 0.019687,-0.0237 0.030789,-0.02 0.038788,0.0129 0.012963,0.0534 0.053607,0.135 0.077943,0.15649 l 0.024027,0.0212 -0.00739,-0.0643 c -0.00585,-0.0509 -0.00406,-0.0671 0.00855,-0.0776 0.016438,-0.0136 0.027153,0.004 0.077883,0.12864 0.023014,0.0565 0.045726,0.0523 0.045726,-0.009 0,-0.0266 -0.00542,-0.0699 -0.012043,-0.0962 -0.00848,-0.0337 -0.00872,-0.0512 -7.989e-4,-0.0591 0.00792,-0.008 0.023011,0.0119 0.05103,0.067 l 0.039787,0.0782 0.013978,-0.0471 c 0.00769,-0.0259 0.018082,-0.0512 0.023098,-0.0563 0.00509,-0.005 0.031739,0.038 0.06027,0.0975 0.028132,0.0587 0.055099,0.10665 0.059926,0.10665 0.014634,0 0.00985,-0.0922 -0.00859,-0.16559 -0.012071,-0.0481 -0.013991,-0.0725 -0.00629,-0.0802 0.015719,-0.0157 0.039727,0.0252 0.059243,0.10093 0.016093,0.0625 0.044325,0.10678 0.061328,0.0963 0.00506,-0.003 0.00919,-0.0269 0.00919,-0.0528 0,-0.0259 0.00444,-0.0471 0.00986,-0.0471 0.00542,0 0.027914,0.0334 0.049977,0.0743 0.022063,0.0409 0.043231,0.0743 0.047041,0.0743 0.00381,0 0.012808,-0.0277 0.019996,-0.0616 0.011194,-0.0528 0.010641,-0.0674 -0.00386,-0.10209 -0.019865,-0.0475 -0.020001,-0.0485 -0.00675,-0.0485 0.0056,0 0.018605,0.0237 0.028911,0.0528 0.010306,0.029 0.026916,0.0636 0.036912,0.0769 0.017683,0.0234 0.018357,0.0235 0.024903,0.003 0.02143,-0.0674 0.036552,-0.0697 0.068856,-0.0105 0.014382,0.0263 0.031008,0.0462 0.036947,0.0441 0.00594,-0.002 0.010797,-0.0304 0.010797,-0.0631 0,-0.0938 0.018148,-0.0964 0.058688,-0.008 0.041981,0.0911 0.060801,0.11125 0.05465,0.0586 -0.0043,-0.0368 0.011368,-0.0684 0.033845,-0.0682 0.00658,4e-5 0.022848,0.0191 0.036152,0.0424 0.037548,0.0657 0.048436,0.0587 0.044971,-0.029 -0.00432,-0.10938 0.027743,-0.1154 0.06899,-0.0129 0.016567,0.0412 0.033813,0.0771 0.038326,0.0799 0.00451,0.003 0.013236,-0.0136 0.019386,-0.0365 0.00615,-0.0228 0.017989,-0.0472 0.026309,-0.0541 0.016022,-0.0133 0.025628,-0.006 0.069231,0.0525 0.028235,0.0379 0.034892,0.0223 0.015176,-0.0356 -0.015586,-0.0457 -0.015563,-0.0519 2.758e-4,-0.0761 0.00948,-0.0145 0.02148,-0.0263 0.02667,-0.0263 0.00519,0 0.022208,0.0334 0.037817,0.0743 0.015609,0.0408 0.03193,0.0743 0.036269,0.0743 0.00434,0 0.014093,-0.0116 0.021675,-0.0258 0.014433,-0.027 0.01181,-0.0523 -0.011307,-0.10914 -0.016342,-0.0402 -0.00336,-0.091 0.02461,-0.0964 0.019674,-0.004 0.034069,0.0377 0.05223,0.15045 0.011968,0.0743 0.038482,0.13658 0.055642,0.13068 0.013188,-0.005 0.013881,-0.0439 0.00191,-0.10843 -0.00642,-0.0346 -0.00391,-0.0477 0.01321,-0.0688 l 0.021131,-0.0261 0.022872,0.0794 c 0.01258,0.0437 0.033219,0.1009 0.045864,0.12716 l 0.022992,0.0477 0.0056,-0.0708 c 0.00308,-0.0389 0.00941,-0.0745 0.014062,-0.0792 0.019111,-0.019 0.046324,0.0189 0.075507,0.10527 0.034443,0.10194 0.054914,0.11531 0.03183,0.0208 z m -0.8568107,-0.17955 c -0.00384,-0.004 -0.00698,-0.0197 -0.00698,-0.0353 0,-0.0156 0.00314,-0.0314 0.00698,-0.0353 0.010587,-0.0106 0.035458,0.0141 0.035458,0.0353 0,0.0211 -0.024871,0.0459 -0.035458,0.0353 z m 0.7042464,-0.024 c -0.017156,-0.0321 -0.012976,-0.0625 0.010283,-0.075 0.017926,-0.01 0.023136,-0.007 0.033176,0.0148 0.024477,0.0537 -0.016527,0.11055 -0.043458,0.0602 z m -0.4612135,-0.004 c -0.015982,-0.0117 -0.017174,-0.018 -0.00696,-0.0371 0.014711,-0.0275 0.028228,-0.0293 0.041495,-0.006 0.01018,0.0182 0.00481,0.0568 -0.0079,0.0568 -0.00404,0 -0.016023,-0.006 -0.02663,-0.0141 z m 0.1141059,-0.0621 c -0.017168,-0.0219 -0.022749,-0.057 -0.012083,-0.0761 0.01534,-0.0274 0.028367,-0.0206 0.035756,0.0188 0.00815,0.0435 -0.00657,0.079 -0.023672,0.0573 z m -0.2403393,-0.005 c -0.00999,-0.01 -0.00882,-0.0566 0.00141,-0.0566 0.017119,0 0.031353,0.0236 0.026182,0.0433 -0.00548,0.0209 -0.015227,0.0256 -0.027596,0.0133 z m 0.4658192,-0.01 c -0.021932,-0.0219 -0.021324,-0.0641 0.00105,-0.0727 0.017008,-0.007 0.023768,-9.3e-4 0.046257,0.0383 0.012358,0.0215 0.00274,0.0512 -0.016609,0.0512 -0.00771,0 -0.021524,-0.007 -0.030694,-0.0167 z m 0.3271692,-0.0735 c -0.016099,-0.0246 -0.016099,-0.0285 0,-0.053 0.022447,-0.0343 0.033983,-0.0335 0.053206,0.004 0.013823,0.0267 0.013784,0.0329 -3.289e-4,0.0531 -0.020677,0.0295 -0.0316,0.0288 -0.052877,-0.004 z m -0.2273488,-0.006 c -0.023664,-0.0442 0.012425,-0.0838 0.042914,-0.047 0.010299,0.0124 0.010658,0.0224 0.00153,0.0424 -0.014519,0.0319 -0.02904,0.0334 -0.044441,0.005 z m -0.2267603,-0.0164 c -0.010701,-0.0279 -0.0073,-0.0542 0.00873,-0.0675 0.012162,-0.0101 0.017607,-0.008 0.027426,0.0103 0.014727,0.0275 0.00522,0.074 -0.015144,0.074 -0.00802,0 -0.017475,-0.008 -0.021017,-0.0168 z m 0.3383773,-0.0681 c -0.0037,-0.0117 -0.00362,-0.031 1.772e-4,-0.043 0.00988,-0.0311 0.036957,-0.006 0.036957,0.0337 0,0.0356 -0.026674,0.0423 -0.037134,0.009 z m 0.2324517,-0.005 c -0.00379,-0.0151 -0.00425,-0.0301 -0.00102,-0.0333 0.010378,-0.0104 0.028504,0.007 0.028504,0.0281 0,0.0317 -0.019901,0.0355 -0.027488,0.005 z m -0.4671397,-0.01 c -0.00731,-0.0191 0.00454,-0.0402 0.017921,-0.0319 0.013444,0.008 0.012565,0.0473 -0.00107,0.0473 -0.00602,0 -0.013603,-0.007 -0.016855,-0.0154 z m 0.3421207,-0.0433 c -0.013274,-0.0346 -0.00734,-0.0686 0.011927,-0.0685 0.036909,3.2e-4 0.050459,0.0174 0.039183,0.0495 -0.011906,0.0339 -0.041219,0.0447 -0.05111,0.019 z m 0.2020188,-0.30911 c -0.00389,-0.004 -0.00707,-0.0368 -0.00707,-0.0731 0,-0.0497 0.00405,-0.0676 0.016316,-0.0723 0.018738,-0.007 0.021996,4.7e-4 0.030536,0.0718 0.0072,0.0602 -0.013981,0.0994 -0.039779,0.0736 z m -0.031537,-0.2376 c -0.00697,-0.0267 0.017978,-0.0392 0.040644,-0.0204 0.012096,0.01 0.013024,0.0167 0.00387,0.0277 -0.017537,0.0211 -0.037946,0.0178 -0.044515,-0.007 z m -0.00347,-0.1337 c -0.013318,-0.0319 -0.013853,-0.0433 -0.00297,-0.0637 0.018905,-0.0353 0.037921,-0.0307 0.052255,0.0127 0.010315,0.0313 0.00952,0.0419 -0.00473,0.0637 -0.00941,0.0144 -0.019636,0.0261 -0.022717,0.0261 -0.00308,0 -0.012909,-0.0175 -0.021841,-0.0389 z m -1.289801,-0.0481 c 0.0099,-0.01 0.015561,-0.01 0.025463,0 0.0099,0.01 0.00707,0.0127 -0.012732,0.0127 -0.019805,0 -0.022634,-0.003 -0.012731,-0.0127 z m 0.2925477,-0.22566 c -0.00362,-0.009 -0.00338,-0.0204 5.411e-4,-0.0243 0.0085,-0.008 0.038801,0.009 0.041408,0.0238 0.00317,0.0181 -0.035032,0.0185 -0.041949,4.7e-4 z m 0.1230454,-0.28716 c -0.00733,-0.009 -0.01094,-0.0184 -0.00803,-0.0214 0.00749,-0.007 0.040165,0.006 0.040165,0.0169 0,0.0175 -0.019089,0.0202 -0.032139,0.004 z m 0.1028708,-0.0438 c -0.016355,-0.0163 -0.0062,-0.0367 0.01669,-0.0335 0.030037,0.004 0.039527,0.0405 0.010612,0.0405 -0.011126,0 -0.023412,-0.003 -0.027302,-0.007 z m 0.010281,-0.12562 c -0.023566,-0.0236 -0.021833,-0.0362 0.00403,-0.0295 0.026851,0.007 0.037203,0.0229 0.023692,0.0365 -0.00675,0.007 -0.016423,0.004 -0.027722,-0.007 z m 0.1120846,-0.17711 c -0.021471,-0.0215 -0.015797,-0.0615 0.00872,-0.0615 0.028847,0 0.0531,0.0503 0.030999,0.0643 -0.020112,0.0127 -0.024576,0.0124 -0.039714,-0.003 z m 1.7879003,2.06036 c 0.012923,-0.0379 0.023665,-0.0799 0.023872,-0.0933 4.88e-4,-0.0317 -0.026632,-0.0837 -0.050131,-0.0961 -0.050795,-0.0269 -0.2556475,-0.0974 -0.2999505,-0.10331 -0.058163,-0.008 -0.058742,-0.007 -0.068327,0.0954 -0.00505,0.0539 -0.00218,0.0688 0.020792,0.10799 0.016651,0.0284 0.02665,0.0617 0.02665,0.0887 0,0.0238 0.00422,0.0432 0.00938,0.0432 0.00516,0 0.026796,-0.0193 0.048089,-0.0429 0.021293,-0.0236 0.043333,-0.04 0.048978,-0.0365 0.00565,0.003 0.010264,0.0289 0.010264,0.0566 v 0.0502 l 0.1034452,-5e-4 0.1034452,-5e-4 0.023496,-0.0689 z m 0.2509285,0.0409 0.04054,-0.0334 0.02422,0.0304 0.02422,0.0304 0.037742,-0.0288 c 0.046825,-0.0357 0.060378,-0.0362 0.060378,-0.002 0,0.0363 0.016575,0.0333 0.061002,-0.0111 0.037396,-0.0374 0.043781,-0.0384 0.0797,-0.0128 0.016039,0.0114 0.022216,0.009 0.043562,-0.0178 0.019531,-0.0245 0.036023,-0.0324 0.076799,-0.0371 l 0.051926,-0.006 -0.00104,-0.0666 c -8.478e-4,-0.0542 -0.00563,-0.0714 -0.025721,-0.0928 -0.029909,-0.0318 -0.04684,-0.0325 -0.1190081,-0.005 -0.060373,0.0231 -0.2768699,0.0598 -0.3931345,0.0666 -0.039641,0.002 -0.07603,0.009 -0.080863,0.0138 -0.00483,0.005 -0.011613,0.0419 -0.015066,0.0813 -0.00614,0.0701 -0.00575,0.0716 0.017273,0.0658 0.018242,-0.005 0.027856,10e-4 0.042649,0.0264 0.010504,0.0178 0.022515,0.0323 0.026691,0.0323 0.00418,0 0.025836,-0.015 0.048133,-0.0334 z m -0.7684537,-0.0956 c 0.036798,-0.0343 0.067101,-0.11013 0.058906,-0.14745 -0.019169,-0.0873 -0.152916,-0.14083 -0.2573707,-0.10306 -0.034592,0.0125 -0.035905,0.0149 -0.029649,0.054 0.00914,0.0572 0.039605,0.11194 0.08731,0.15697 0.071928,0.0679 0.1014444,0.0762 0.1408036,0.0395 z m 0.8947526,-0.35378 c 0.036069,-0.0407 0.051423,-0.0453 0.071411,-0.0212 0.020836,0.0251 0.046031,0.0189 0.084648,-0.021 0.028044,-0.0289 0.038899,-0.0343 0.050297,-0.0248 0.00943,0.008 0.012211,0.0226 0.00792,0.0422 -0.00364,0.0166 -0.00243,0.0301 0.00269,0.0301 0.015254,0 0.07553,-0.0652 0.1120929,-0.1213 0.047533,-0.0729 0.061454,-0.0743 0.053299,-0.005 l -0.00653,0.0551 0.074406,-0.0541 c 0.095451,-0.0694 0.09718,-0.0718 0.116576,-0.15744 0.030424,-0.1344 0.030386,-0.13504 -0.010571,-0.17973 l -0.037141,-0.0405 -0.062045,0.0136 c -0.034125,0.008 -0.1169508,0.0252 -0.1840576,0.0393 -0.1664871,0.0349 -0.2143429,0.0509 -0.3126462,0.10449 l -0.084536,0.046 -0.00138,0.15038 c -0.00131,0.14267 0.00635,0.18292 0.028248,0.14835 0.00509,-0.008 0.00933,-0.0294 0.00942,-0.0475 9.55e-5,-0.0191 0.00896,-0.0408 0.021161,-0.0518 0.022703,-0.0205 0.019788,-0.0231 0.037353,0.0325 0.00292,0.009 -0.00186,0.027 -0.01061,0.0395 -0.018546,0.0265 -0.021017,0.0604 -0.0044,0.0604 0.00633,0 0.026309,-0.0167 0.044391,-0.0371 z m -0.3635896,-0.0106 c 0.063804,-0.0323 0.071239,-0.0326 0.094722,-0.004 0.010202,0.0126 0.023967,0.0196 0.03059,0.0155 0.015643,-0.01 0.055055,-0.13743 0.055055,-0.17847 0,-0.0513 -0.030781,-0.10243 -0.078301,-0.13018 -0.087304,-0.051 -0.379577,-0.11881 -0.4735754,-0.10988 -0.032479,0.003 -0.037295,0.007 -0.039682,0.0353 -0.00149,0.0175 -0.00774,0.0595 -0.013874,0.0932 -0.010606,0.0584 -0.00982,0.063 0.015979,0.0936 0.019535,0.0232 0.027136,0.0445 0.027136,0.0761 v 0.0439 l 0.051165,-0.0504 0.051164,-0.0504 0.012637,0.0277 c 0.010815,0.0237 0.00937,0.0323 -0.01003,0.0596 -0.016448,0.0231 -0.019474,0.035 -0.011028,0.0435 0.00845,0.008 0.018853,0.004 0.037932,-0.0167 0.032584,-0.0352 0.041891,-0.0355 0.057205,-0.002 0.015199,0.0334 0.026358,0.0333 0.070858,-6.9e-4 0.033477,-0.0255 0.036306,-0.026 0.045766,-0.008 0.00555,0.0106 0.00773,0.0348 0.00484,0.0537 -0.00639,0.0421 0.00224,0.043 0.071438,0.008 z m -0.5481991,-0.17554 c 0.047011,-0.037 0.062796,-0.13015 0.032731,-0.1932 -0.025075,-0.0526 -0.08012,-0.0855 -0.1512861,-0.0904 -0.113282,-0.008 -0.1426575,0.0283 -0.1176268,0.14504 0.026589,0.12398 0.1572747,0.20068 0.2361821,0.13861 z m 0.9151166,-0.47591 c 0.034763,-0.0979 0.039009,-0.10715 0.049126,-0.10715 0.00566,0 0.00924,0.0227 0.00795,0.0504 -0.00472,0.10153 0.00172,0.10881 0.042833,0.0484 0.04506,-0.0662 0.051696,-0.0703 0.081235,-0.051 0.024386,0.016 0.027555,0.0154 0.057973,-0.0102 0.036771,-0.0309 0.048845,-0.0326 0.077668,-0.0108 0.025836,0.0195 0.048369,0.0201 0.048369,0.001 0,-0.008 0.010063,-0.0273 0.022361,-0.0429 0.021517,-0.0274 0.023362,-0.0278 0.048878,-0.0111 0.014584,0.01 0.030146,0.0134 0.034582,0.008 0.014565,-0.0161 0.042715,-0.11282 0.042715,-0.14668 0,-0.0791 -0.1311261,-0.20835 -0.2491045,-0.24554 -0.055288,-0.0174 -0.058019,-0.0173 -0.1158831,0.006 -0.1276434,0.0518 -0.3883057,0.22595 -0.3883057,0.25942 0,0.007 0.011936,0.0473 0.026524,0.0891 0.01772,0.0507 0.026524,0.0987 0.026524,0.14445 0,0.0377 0.00508,0.0717 0.011278,0.0755 0.012508,0.008 0.054576,-0.0254 0.047268,-0.0372 -0.00722,-0.0117 0.026611,-0.0544 0.037668,-0.0476 0.00544,0.003 0.00988,0.0289 0.00988,0.0568 0,0.0279 0.00323,0.0539 0.00717,0.0578 0.013033,0.013 0.055664,-0.0378 0.073284,-0.0875 z m 0.021399,-0.24083 c -0.020443,-0.0533 0.022152,-0.14753 0.087789,-0.19427 0.041136,-0.0293 0.054091,-0.0221 0.048044,0.0267 -0.00558,0.0449 -0.024947,0.0848 -0.063384,0.13051 -0.038065,0.0452 -0.064193,0.0586 -0.072449,0.0371 z m -0.3718459,0.27713 c 0.022932,-0.0301 0.031768,-0.035 0.047586,-0.0265 0.010684,0.006 0.022127,0.0104 0.025428,0.0104 0.0033,0 0.006,-0.036 0.006,-0.08 0,-0.0885 -0.023369,-0.15104 -0.067233,-0.17978 -0.044508,-0.0292 -0.3076953,-0.11156 -0.3563361,-0.11156 -0.026685,0 -0.030224,0.007 -0.037845,0.0697 -0.00347,0.0288 -0.011289,0.0857 -0.017375,0.12658 -0.00927,0.0622 -0.00835,0.0794 0.00569,0.1061 0.00921,0.0175 0.016781,0.0378 0.016817,0.0451 4.24e-5,0.008 0.014314,0.0133 0.035769,0.0133 0.019637,0 0.047741,0.009 0.062454,0.021 0.026705,0.021 0.026797,0.021 0.054377,-6.9e-4 0.028761,-0.0226 0.049051,-0.0197 0.049051,0.007 0,0.0215 0.028777,0.0307 0.047423,0.0152 0.012071,-0.01 0.020425,-0.009 0.03936,0.004 0.036309,0.0254 0.057828,0.0206 0.088834,-0.0201 z m -0.5521558,-0.1375 c 0.070077,-0.0293 0.1012401,-0.12394 0.058635,-0.1781 -0.029726,-0.0378 -0.1109038,-0.0693 -0.1934445,-0.075 -0.07944,-0.006 -0.1041196,0.005 -0.1306034,0.0563 -0.050424,0.0975 0.013739,0.17049 0.1804266,0.2052 0.038393,0.008 0.048037,0.007 0.084987,-0.008 z m 1.6019661,-0.23289 c 0,-0.0379 0.00535,-0.0542 0.022403,-0.0679 0.021077,-0.017 0.021883,-0.0237 0.013626,-0.11232 -0.013933,-0.14959 -0.035447,-0.19502 -0.1397515,-0.29513 -0.057707,-0.0554 -0.2291303,-0.14644 -0.275701,-0.14644 -0.017768,0 -0.063229,-0.023 -0.1164985,-0.0588 -0.059471,-0.04 -0.095868,-0.0578 -0.1140117,-0.0557 -0.024049,0.003 -0.026652,0.008 -0.026652,0.0508 0,0.0477 2.12e-5,0.0477 0.045891,0.0574 0.04006,0.008 0.044997,0.0125 0.038856,0.0319 -0.017864,0.0564 -0.013311,0.0648 0.034014,0.0627 0.04393,-0.002 0.044534,-0.001 0.047744,0.0367 0.0026,0.0309 0.00842,0.0399 0.028989,0.0447 0.014156,0.003 0.027683,0.0118 0.030061,0.019 0.00498,0.0149 -0.044121,0.0161 -0.1350512,0.003 -0.065844,-0.009 -0.095809,-0.005 -0.095809,0.0153 0,0.0203 0.058457,0.0369 0.1315528,0.0373 0.037958,2e-4 0.072669,0.006 0.08393,0.0149 0.025405,0.0193 0.013818,0.0248 -0.067683,0.0326 -0.037525,0.004 -0.072318,0.0105 -0.077318,0.0155 -0.016763,0.0167 0.040063,0.0413 0.1364087,0.0591 0.1325511,0.0245 0.152195,0.0349 0.2236311,0.11735 0.1067445,0.12327 0.1830002,0.19768 0.197497,0.1927 0.00878,-0.003 0.013872,-0.023 0.013872,-0.0546 z m -2.0018552,0.0235 c -0.00429,-0.0292 -0.029915,-0.039 -0.029915,-0.0114 0,0.022 0.00857,0.0345 0.023726,0.0345 0.00527,0 0.00805,-0.0104 0.00619,-0.023 z m 1.0676967,-0.22269 c 0.014863,-0.007 0.027024,-0.0206 0.027024,-0.0306 0,-0.0303 -0.053778,-0.18179 -0.082657,-0.23292 -0.06139,-0.10869 -0.1037814,-0.12434 -0.1407211,-0.0519 -0.020104,0.0394 -0.020996,0.0488 -0.00936,0.0981 0.014175,0.0601 0.073404,0.1855 0.1003698,0.21247 0.020122,0.0201 0.067089,0.0223 0.1053408,0.005 z M 6.8201507,291.013 c 0.011297,-0.006 0.02745,-0.0275 0.035895,-0.0477 0.00845,-0.0202 0.020374,-0.0368 0.026507,-0.0368 0.014174,0 0.014652,-0.039 5.846e-4,-0.0477 -0.01832,-0.0113 -0.067341,0.0201 -0.074535,0.0477 -0.013782,0.053 -0.020338,0.0955 -0.014729,0.0955 0.00316,0 0.01498,-0.005 0.026277,-0.011 z m -0.066914,-0.12204 c 0.00152,-0.0173 -0.00203,-0.0386 -0.00789,-0.0473 -0.00889,-0.0133 -0.015175,-0.0102 -0.038021,0.0186 -0.021394,0.027 -0.032818,0.0331 -0.052347,0.0282 -0.01374,-0.003 -0.033408,-0.002 -0.043708,0.004 -0.016655,0.009 -0.014852,0.0128 0.016297,0.0318 0.030964,0.0188 0.040118,0.0198 0.078965,0.009 0.037621,-0.0108 0.044338,-0.0172 0.046704,-0.0441 z m -4.3869681,-0.0182 c 0.028625,-0.0786 0.038214,-0.11678 0.055257,-0.22015 0.00914,-0.0554 0.026442,-0.12775 0.038449,-0.1607 0.012007,-0.0329 0.020241,-0.0711 0.018297,-0.0849 -0.00313,-0.0221 -0.00689,-0.0193 -0.032671,0.0246 -0.016025,0.0273 -0.036247,0.0802 -0.044937,0.1177 -0.00869,0.0375 -0.02297,0.0853 -0.031734,0.10626 -0.00876,0.021 -0.018668,0.0731 -0.02201,0.11572 -0.00334,0.0427 -0.00765,0.0931 -0.00958,0.11207 -0.0049,0.0482 0.00941,0.043 0.028928,-0.0106 z m 0.6632516,-0.10255 c 0.054592,-0.0282 0.1176794,-0.0962 0.1348436,-0.14535 0.026909,-0.0771 0.00293,-0.23168 -0.041683,-0.26871 -0.051894,-0.0431 -0.086304,0.0403 -0.1420195,0.3442 -0.00766,0.0418 -0.00525,0.0902 0.0045,0.0902 0.00274,0 0.022703,-0.009 0.044354,-0.0203 z m 5.5146307,-0.3868 c -0.00566,-0.0453 -0.00357,-0.0606 0.010145,-0.0743 0.0095,-0.01 0.019232,-0.0173 0.021635,-0.0173 0.0024,0 0.028756,0.031 0.058564,0.069 0.051907,0.0661 0.08418,0.0899 0.068264,0.0504 -0.00412,-0.0102 -0.010128,-0.0377 -0.013357,-0.061 -0.00347,-0.0251 -0.016066,-0.052 -0.030784,-0.0658 -0.013702,-0.0129 -0.024912,-0.0308 -0.024912,-0.0399 0,-0.0134 0.011783,-0.0106 0.061051,0.0143 0.045171,0.0228 0.067425,0.0422 0.085557,0.0744 0.013478,0.024 0.025828,0.0436 0.027444,0.0436 0.00162,0 0.023497,-0.0202 0.048626,-0.0448 l 0.045688,-0.0448 0.017006,0.0261 c 0.025486,0.0392 0.087135,0.10589 0.097814,0.10589 0.013205,0 0.01165,-0.0365 -0.00292,-0.0684 -0.010243,-0.0225 -0.00908,-0.0305 0.00695,-0.0482 0.010583,-0.0117 0.022823,-0.0213 0.0272,-0.0213 0.00438,0 0.020548,0.0215 0.035937,0.0478 0.015389,0.0263 0.031616,0.0477 0.036061,0.0477 0.00444,0 0.024535,-0.0171 0.044644,-0.038 0.02011,-0.0209 0.049566,-0.0448 0.065459,-0.0532 0.028277,-0.0148 0.029357,-0.0142 0.050396,0.027 0.011825,0.0232 0.0215,0.0495 0.0215,0.0585 0,0.009 0.00674,0.0163 0.014972,0.0163 0.020652,0 0.069907,-0.0607 0.069907,-0.0861 0,-0.0388 -0.040802,-0.10106 -0.1055626,-0.16102 -0.054192,-0.0502 -0.078497,-0.0642 -0.1518853,-0.0874 -0.1224904,-0.0388 -0.3271804,-0.0515 -0.5187925,-0.0321 -0.064338,0.007 -0.092442,0.005 -0.1346954,-0.009 -0.029367,-0.01 -0.107367,-0.0221 -0.1733335,-0.0274 -0.065967,-0.005 -0.1629086,-0.0142 -0.2154269,-0.0196 -0.1195688,-0.0125 -0.3296467,-0.0238 -0.7161591,-0.0386 -0.164142,-0.006 -0.2121953,-0.0122 -0.2121953,-0.026 0,-0.0199 -0.052464,-0.0231 -0.3448174,-0.0212 -0.3395295,0.002 -0.3571111,0.003 -0.4733436,0.0148 -0.048757,0.005 -0.1328793,0.003 -0.2121953,-0.004 -0.2931526,-0.0276 -0.762694,-0.009 -0.762694,0.0297 0,0.0178 0.1451419,0.068 0.2121953,0.0733 0.03793,0.003 0.085674,0.0138 0.1060976,0.0241 0.020424,0.0102 0.065781,0.0219 0.1007928,0.0259 0.042627,0.005 0.074831,0.0158 0.097477,0.0331 l 0.033818,0.0258 0.038505,-0.0227 c 0.038018,-0.0224 0.039293,-0.0225 0.1006986,-0.004 0.052514,0.0159 0.0699,0.0169 0.111714,0.006 0.051105,-0.0129 0.2379354,-0.0145 0.2577677,-0.002 0.00616,0.004 0.016147,0.02 0.022203,0.0359 0.013138,0.0346 0.02165,0.0358 0.053975,0.008 0.013457,-0.0117 0.027999,-0.0212 0.032318,-0.0212 0.020998,0 0.027906,0.0735 0.00871,0.0926 -0.013161,0.0132 -0.00538,0.0453 0.010971,0.0453 0.00563,0 0.01331,-0.01 0.017077,-0.0216 0.00842,-0.0265 0.046624,-0.0633 0.065773,-0.0633 0.023738,0 0.039016,0.0472 0.026706,0.0825 -0.027397,0.0786 0.035826,0.0552 0.075251,-0.0278 0.01989,-0.0419 0.028077,-0.0494 0.053963,-0.0494 0.048532,0 0.058988,0.029 0.029199,0.081 -0.017726,0.0309 -0.021578,0.0466 -0.013439,0.0548 0.00627,0.006 0.012881,0.009 0.01468,0.007 0.0018,-0.003 0.016269,-0.0249 0.032157,-0.0497 0.043188,-0.0674 0.071024,-0.0574 0.071024,0.0257 v 0.0372 l 0.041745,-0.007 c 0.038878,-0.007 0.042904,-0.005 0.058626,0.0256 0.018747,0.0362 0.055876,0.0443 0.065132,0.0141 0.024232,-0.0791 0.09658,-0.18302 0.127364,-0.18302 0.020428,0 0.01882,0.0105 -0.011605,0.0759 -0.026324,0.0566 -0.033792,0.094 -0.018671,0.0937 0.019857,-4e-4 0.037402,-0.0211 0.0403,-0.0475 0.0033,-0.03 0.042331,-0.0797 0.062663,-0.0797 0.00645,0 0.030157,0.0254 0.052674,0.0565 0.056631,0.0782 0.1334787,0.12878 0.1334787,0.0879 0,-0.008 -0.017001,-0.0394 -0.03778,-0.0696 -0.041697,-0.0606 -0.043027,-0.0803 -0.00704,-0.10416 0.023338,-0.0155 0.024723,-0.0145 0.041396,0.0279 0.014404,0.0367 0.02207,0.0439 0.046462,0.0439 0.023403,0 0.034776,0.009 0.057192,0.0477 0.015389,0.0263 0.031968,0.0477 0.036843,0.0477 0.017291,0 0.035103,-0.032 0.029573,-0.0532 -0.00648,-0.0248 0.017254,-0.0529 0.044661,-0.0529 0.01035,0 0.027675,0.01 0.038502,0.0217 0.020148,0.0223 0.02,0.0236 -0.010724,0.0971 -0.00581,0.0139 0.00628,0.0106 0.052341,-0.0144 0.05592,-0.0303 0.059442,-0.0345 0.053142,-0.0632 -0.00507,-0.0231 -0.00235,-0.0324 0.010944,-0.0375 0.012725,-0.005 0.042834,0.0182 0.1072678,0.0822 0.072378,0.0719 0.091521,0.086 0.099699,0.0731 0.015946,-0.0251 0.012221,-0.0468 -0.010439,-0.061 -0.032855,-0.0205 -0.057454,-0.0752 -0.04214,-0.0936 0.014391,-0.0173 0.041806,-0.0204 0.041806,-0.005 0,0.0184 0.1829457,0.19269 0.1923693,0.18326 0.014302,-0.0143 -0.00763,-0.0737 -0.043109,-0.11673 -0.017904,-0.0217 -0.032553,-0.0448 -0.032553,-0.0513 0,-0.0129 0.040334,-0.0532 0.04609,-0.046 0.00194,0.002 0.018141,0.0258 0.03601,0.0521 0.043912,0.0645 0.092333,0.10883 0.1141332,0.10442 0.015128,-0.003 0.01278,-0.0102 -0.014866,-0.0449 -0.035806,-0.045 -0.03946,-0.0593 -0.020098,-0.0786 0.021853,-0.0219 0.039452,-0.0141 0.055548,0.0244 0.01043,0.025 0.0225,0.0371 0.036824,0.0371 0.01212,0 0.034085,0.0169 0.050938,0.0391 0.037819,0.0499 0.084224,0.0988 0.093694,0.0988 0.00404,0 0.00414,-0.0256 2.217e-4,-0.057 z m -0.070431,-0.11567 c -0.014336,-0.0315 -0.00697,-0.0607 0.015271,-0.0607 0.022805,0 0.032537,0.0531 0.013266,0.0723 -0.01423,0.0142 -0.017351,0.013 -0.028537,-0.0116 z m -1.4470069,-0.0258 c -0.00532,-0.0212 -0.00224,-0.0324 0.011683,-0.0426 0.03832,-0.028 0.062899,0.0142 0.029655,0.0509 -0.024788,0.0274 -0.032776,0.0258 -0.041338,-0.008 z m 0.567609,-0.0236 c -0.018418,-0.0344 -0.01355,-0.0643 0.010464,-0.0643 0.029072,0 0.050507,0.0462 0.031863,0.0686 -0.017919,0.0216 -0.02908,0.0205 -0.042327,-0.004 z m -0.2550076,-0.0856 c 0,-0.0139 0.00707,-0.0212 0.020593,-0.0212 0.02953,0 0.036653,0.0182 0.012231,0.0313 -0.028841,0.0154 -0.032824,0.0142 -0.032824,-0.0101 z m -0.1909758,0.26524 c 0,-0.006 -0.00477,-0.0106 -0.01061,-0.0106 -0.00584,0 -0.01061,0.005 -0.01061,0.0106 0,0.006 0.00477,0.0106 0.01061,0.0106 0.00584,0 0.01061,-0.005 0.01061,-0.0106 z m -4.5936945,-0.14657 c 0.013001,-0.0311 0.01317,-0.055 3.887e-4,-0.055 -0.017789,0 -0.051794,0.0582 -0.059139,0.10115 l -0.00719,0.0421 0.027832,-0.0318 c 0.015308,-0.0175 0.032456,-0.0429 0.038108,-0.0564 z"
         style="fill:#000000;stroke-width:0.01060976" />
    </g>
  </g>
</svg>
